<svg width="50.000000" height="50.000000" viewBox="0 0 50 50" fill="none" xmlns="http://www.w3.org/2000/svg" xmlns:xlink="http://www.w3.org/1999/xlink">
	<desc>
			Created with Pixso.
	</desc>
	<defs>
		<clipPath id="clip10_327">
			<rect id="facebook" width="50.000000" height="50.000000" fill="white" fill-opacity="0"/>
		</clipPath>
	</defs>
	<rect id="facebook" width="50.000000" height="50.000000" fill="#FFFFFF" fill-opacity="0"/>
	<g clip-path="url(#clip10_327)">
		<path id="Vector" d="M31.2501 4.1665C28.4874 4.1665 25.8378 5.26416 23.8843 7.21729C21.9308 9.1709 20.8334 11.8203 20.8334 14.583L20.8334 20.833L14.5834 20.833L14.5834 29.1665L20.8334 29.1665L20.8334 45.833L29.1667 45.833L29.1667 29.1665L35.4167 29.1665L37.5001 20.833L29.1667 20.833L29.1667 14.583C29.1667 14.0308 29.3862 13.501 29.7769 13.1099C30.1676 12.7192 30.6975 12.5 31.2501 12.5L37.5001 12.5L37.5001 4.1665L31.2501 4.1665Z" stroke="#FFFFFF" stroke-opacity="1.000000" stroke-width="2.000000" stroke-linejoin="round"/>
	</g>
</svg>
