<svg width="49.961548" height="50.000000" viewBox="0 0 49.9615 50" fill="none" xmlns="http://www.w3.org/2000/svg" xmlns:xlink="http://www.w3.org/1999/xlink">
	<desc>
			Created with Pixso.
	</desc>
	<defs>
		<clipPath id="clip2_50">
			<rect id="map-pin" width="29.976923" height="30.000000" transform="translate(9.992310 10.000000)" fill="white" fill-opacity="0"/>
		</clipPath>
	</defs>
	<rect id="Rectangle 5" rx="10.000000" width="49.961540" height="50.000000" fill="#C4C4C4" fill-opacity="0.100000"/>
	<rect id="map-pin" width="29.976923" height="30.000000" transform="translate(9.992310 10.000000)" fill="#FFFFFF" fill-opacity="0"/>
	<g clip-path="url(#clip2_50)">
		<path id="Vector" d="M24.9807 38.75C24.9807 38.75 13.7394 31.25 13.7394 22.5C13.7394 19.5163 14.9237 16.6548 17.0319 14.545C19.1401 12.4353 21.9993 11.25 24.9807 11.25C27.9621 11.25 30.8214 12.4353 32.9296 14.545C35.0377 16.6548 36.222 19.5163 36.222 22.5C36.222 31.25 24.9807 38.75 24.9807 38.75Z" stroke="#17C2EC" stroke-opacity="1.000000" stroke-width="2.000000" stroke-linejoin="round"/>
		<path id="Vector" d="M24.9808 26.25C22.9113 26.25 21.2336 24.5711 21.2336 22.5C21.2336 20.4289 22.9113 18.75 24.9808 18.75C27.0502 18.75 28.7278 20.4289 28.7278 22.5C28.7278 24.5711 27.0502 26.25 24.9808 26.25Z" stroke="#17C2EC" stroke-opacity="1.000000" stroke-width="2.000000" stroke-linejoin="round"/>
	</g>
</svg>
