<svg width="75.442841" height="75.442871" viewBox="0 0 75.4428 75.4429" fill="none" xmlns="http://www.w3.org/2000/svg" xmlns:xlink="http://www.w3.org/1999/xlink">
	<desc>
			Created with Pixso.
	</desc>
	<defs>
		<filter id="filter_6_77_dd" x="0.000000" y="0.000000" width="75.442841" height="75.442871" filterUnits="userSpaceOnUse" color-interpolation-filters="sRGB">
			<feFlood flood-opacity="0" result="BackgroundImageFix"/>
			<feColorMatrix in="SourceAlpha" type="matrix" values="0 0 0 0 0 0 0 0 0 0 0 0 0 0 0 0 0 0 127 0" result="hardAlpha"/>
			<feOffset dx="0" dy="2.79418"/>
			<feGaussianBlur stdDeviation="0.931393"/>
			<feComposite in2="hardAlpha" operator="out" k2="-1" k3="1"/>
			<feColorMatrix type="matrix" values="0 0 0 0 0 0 0 0 0 0 0 0 0 0 0 0 0 0 0.1 0"/>
			<feBlend mode="normal" in2="BackgroundImageFix" result="effect_dropShadow_1"/>
			<feBlend mode="normal" in="SourceGraphic" in2="effect_dropShadow_1" result="shape"/>
		</filter>
		<clipPath id="clip6_91">
			<rect id="thermometer" width="48.898129" height="48.898129" transform="translate(13.771240 9.979126)" fill="white" fill-opacity="0"/>
		</clipPath>
	</defs>
	<g filter="url(#filter_6_77_dd)">
		<rect id="Rectangle 16" x="2.794189" rx="20.956341" width="69.854469" height="69.854469" fill="#C4C4C4" fill-opacity="0.100000"/>
		<rect id="thermometer" width="48.898129" height="48.898129" transform="translate(13.771240 9.979126)" fill="#FFFFFF" fill-opacity="0"/>
		<g clip-path="url(#clip6_91)">
			<path id="Vector" d="M42.2952 17.11C42.2952 15.7592 41.7585 14.4636 40.8033 13.5083C39.8481 12.5531 38.5525 12.0165 37.2016 12.0165C35.8507 12.0165 34.5551 12.5531 33.5999 13.5083C32.6447 14.4636 32.108 15.7592 32.108 17.11L32.108 40.0514C30.4726 41.1442 29.2319 42.7339 28.5692 44.5859C27.9065 46.4379 27.857 48.4539 28.428 50.3361C28.9989 52.2184 30.1601 53.8671 31.74 55.0388C33.3198 56.2106 35.2346 56.8431 37.2016 56.8431C39.1685 56.8431 41.0834 56.2106 42.6632 55.0388C44.2431 53.8671 45.4043 52.2184 45.9753 50.3361C46.5462 48.4539 46.4967 46.4379 45.834 44.5859C45.1713 42.7339 43.9306 41.1442 42.2952 40.0514L42.2952 17.11Z" stroke="#FFFFFF" stroke-opacity="1.000000" stroke-width="2.993763" stroke-linejoin="round"/>
		</g>
	</g>
</svg>
