<svg width="50.000000" height="50.000000" viewBox="0 0 50 50" fill="none" xmlns="http://www.w3.org/2000/svg" xmlns:xlink="http://www.w3.org/1999/xlink">
	<desc>
			Created with Pixso.
	</desc>
	<defs>
		<clipPath id="clip10_329">
			<rect id="twitter" width="50.000000" height="50.000000" fill="white" fill-opacity="0"/>
		</clipPath>
	</defs>
	<rect id="twitter" width="50.000000" height="50.000000" fill="#FFFFFF" fill-opacity="0"/>
	<g clip-path="url(#clip10_329)">
		<path id="Vector" d="M41.3751 9.4375C40.1204 7.99463 38.4528 6.97217 36.598 6.5083C34.7432 6.04395 32.7906 6.16064 31.0044 6.84277C29.2181 7.52441 27.6843 8.73828 26.6104 10.3203C25.5366 11.9023 24.9744 13.7759 25.0001 15.6875L25.0001 17.771C21.3389 17.8657 17.711 17.0537 14.4396 15.4072C11.1683 13.7607 8.35486 11.3306 6.25006 8.3335C6.25006 8.3335 -2.08331 27.0835 16.6667 35.4165C12.3762 38.3291 7.26495 39.7896 2.08337 39.5835C20.8334 50 43.7501 39.5835 43.7501 15.625C43.7481 15.0444 43.6923 14.4658 43.5834 13.896C45.7097 11.7988 47.2101 9.15137 47.9167 6.25C45.9217 7.65723 43.7128 8.7334 41.3751 9.4375Z" stroke="#FFFFFF" stroke-opacity="1.000000" stroke-width="2.000000" stroke-linejoin="round"/>
	</g>
</svg>
