<svg width="50.000000" height="50.000000" viewBox="0 0 50 50" fill="none" xmlns="http://www.w3.org/2000/svg" xmlns:xlink="http://www.w3.org/1999/xlink">
	<desc>
			Created with Pixso.
	</desc>
	<defs>
		<clipPath id="clip10_335">
			<rect id="youtube" width="50.000000" height="50.000000" fill="white" fill-opacity="0"/>
		</clipPath>
	</defs>
	<rect id="youtube" width="50.000000" height="50.000000" fill="#FFFFFF" fill-opacity="0"/>
	<g clip-path="url(#clip10_335)">
		<path id="Vector" d="M45.4972 10.749C44.7876 10.0171 43.8974 9.48584 42.9167 9.2085C39.3333 8.3335 25 8.3335 25 8.3335C25 8.3335 10.6667 8.3335 7.08334 9.29199C6.1026 9.56934 5.21246 10.1006 4.50281 10.832C3.79318 11.564 3.28915 12.4697 3.04169 13.4585C2.38586 17.0952 2.06509 20.7842 2.08334 24.4795C2.05997 28.2021 2.38077 31.9194 3.04169 35.5835C3.31451 36.5415 3.8298 37.4131 4.53781 38.1138C5.24582 38.8145 6.12256 39.3208 7.08334 39.5835C10.6667 40.542 25 40.542 25 40.542C25 40.542 39.3333 40.542 42.9167 39.5835C43.8974 39.3062 44.7876 38.7744 45.4972 38.043C46.2068 37.3115 46.7109 36.4058 46.9583 35.417C47.6091 31.8076 47.9299 28.1465 47.9167 24.4795C47.9401 20.7563 47.6193 17.0391 46.9583 13.375C46.7109 12.3862 46.2068 11.4805 45.4972 10.749Z" stroke="#FFFFFF" stroke-opacity="1.000000" stroke-width="2.000000" stroke-linejoin="round"/>
		<path id="Vector" d="M32.2917 24.479L20.3125 17.6665L20.3125 31.2915L32.2917 24.479Z" stroke="#FFFFFF" stroke-opacity="1.000000" stroke-width="2.000000" stroke-linejoin="round"/>
	</g>
</svg>
